<?xml version="1.0" standalone="no"?>
<!DOCTYPE svg PUBLIC "-//W3C//DTD SVG 20010904//EN"
 "http://www.w3.org/TR/2001/REC-SVG-20010904/DTD/svg10.dtd">
<svg version="1.0" xmlns="http://www.w3.org/2000/svg"
 width="1980.000000pt" height="1980.000000pt" viewBox="0 0 1980.000000 1980.000000"
 preserveAspectRatio="xMidYMid meet">
<metadata>
Created by potrace 1.11, written by Peter Selinger 2001-2013
</metadata>
<g transform="translate(0.000000,1980.000000) scale(0.100000,-0.100000)"
fill="#000000" stroke="none">
<path d="M9410 19789 c-2019 -104 -3951 -821 -5544 -2058 -354 -275 -586 -481
-932 -826 -398 -398 -705 -755 -1012 -1178 -1238 -1706 -1892 -3720 -1892
-5827 0 -2609 1008 -5076 2835 -6939 1284 -1308 2887 -2227 4660 -2670 1422
-355 2937 -386 4380 -91 2948 604 5468 2534 6835 5235 603 1192 942 2435 1042
3820 17 239 17 1051 0 1290 -100 1385 -439 2628 -1042 3820 -757 1495 -1863
2758 -3250 3712 -1392 957 -3044 1547 -4725 1688 -411 34 -964 44 -1355 24z
m-2342 -6887 c147 -62 267 -158 386 -310 124 -158 250 -309 413 -493 74 -84
275 -313 363 -413 177 -203 303 -347 360 -411 36 -40 119 -134 185 -209 66
-76 147 -168 180 -205 33 -38 110 -126 171 -197 243 -282 345 -345 462 -285
61 31 159 145 278 321 61 91 175 260 253 375 78 116 207 307 287 425 151 224
270 398 382 560 37 52 85 121 107 153 22 33 50 73 63 90 12 18 33 49 47 70 67
100 233 304 292 358 108 101 278 154 414 131 131 -23 220 -86 368 -262 35 -41
73 -86 85 -100 34 -39 167 -198 201 -240 38 -48 239 -276 352 -402 143 -158
401 -441 503 -553 52 -57 167 -183 255 -280 88 -97 202 -223 253 -278 51 -56
139 -156 197 -222 158 -182 260 -247 390 -249 49 -1 73 5 125 31 92 46 123 75
257 239 65 81 138 172 163 202 25 30 65 81 90 112 25 32 72 90 105 130 33 40
80 98 105 130 25 32 72 90 105 130 33 40 78 96 100 124 22 28 50 63 62 76 12
14 51 63 88 110 37 47 102 130 146 185 43 55 137 177 209 270 137 178 245 317
343 441 96 121 171 172 285 194 245 49 421 -102 399 -340 -7 -83 -41 -147
-213 -400 -216 -317 -429 -630 -514 -756 -41 -62 -107 -158 -146 -215 -78
-115 -232 -343 -429 -634 -70 -104 -183 -271 -250 -370 -67 -99 -197 -292
-290 -430 -93 -137 -238 -353 -323 -480 -86 -126 -225 -333 -310 -460 -86
-126 -219 -324 -297 -440 -251 -372 -397 -588 -458 -680 -281 -422 -393 -537
-576 -590 -208 -61 -412 -30 -587 88 -88 60 -141 111 -340 327 -160 173 -214
236 -369 426 -44 54 -127 152 -185 218 -58 66 -143 163 -190 217 -47 54 -132
150 -190 214 -112 125 -235 264 -390 441 -52 60 -124 140 -160 179 -36 39
-114 125 -173 192 -217 242 -301 235 -499 -42 -32 -44 -91 -127 -133 -185 -42
-58 -87 -121 -101 -140 -32 -44 -154 -212 -192 -265 -50 -69 -445 -616 -507
-704 -33 -46 -87 -121 -120 -166 -33 -46 -92 -127 -131 -182 -39 -54 -127
-177 -197 -273 -141 -196 -169 -220 -304 -267 -65 -21 -96 -26 -183 -26 -242
0 -399 84 -588 313 -34 41 -88 105 -119 142 -32 36 -96 111 -143 166 -47 54
-132 152 -190 217 -58 64 -136 154 -175 199 -38 46 -135 157 -214 247 -78 90
-180 206 -225 258 -44 52 -101 118 -126 146 -25 28 -94 109 -155 179 -60 71
-130 152 -155 181 -25 28 -94 108 -154 178 -120 139 -194 203 -293 253 -116
58 -256 54 -367 -11 -63 -37 -161 -142 -273 -291 -126 -168 -284 -375 -506
-662 -143 -185 -179 -231 -212 -273 -16 -21 -57 -72 -90 -114 -33 -42 -73 -94
-90 -115 -26 -32 -91 -114 -182 -230 -16 -19 -75 -93 -133 -165 -57 -71 -124
-155 -148 -185 -24 -30 -60 -68 -81 -83 -93 -73 -242 -123 -337 -114 -81 8
-190 71 -218 125 -22 43 -39 176 -33 249 7 66 8 68 184 334 220 330 531 793
698 1039 70 102 183 268 251 370 69 102 173 255 232 341 113 166 237 348 437
644 422 624 463 685 897 1330 623 926 589 878 754 1086 106 133 250 241 360
269 22 5 86 8 144 6 90 -3 116 -8 178 -34z"/>
</g>
</svg>
